X-Men (2000) 1080p       

  
Canada / Verenigde Staten
Actie / Science-Fiction
104 minuten

geregisseerd door Bryan Singer
met Patrick Stewart, Hugh Jackman en Famke Janssen

Mutanten, mensen met een afwijkende genetische opmaak, die hen zeer bijzondere krachten geeft. 
Sommige mensen zien het als een geschenk uit de hemel, anderen als een vloek.
Professor Charles Xavier en zijn team behoren tot die eerste groep en proberen op Xavier's school jonge mutanten te laten opgroeien met hun speciale krachten.
Maar niet iedere mutant gebruikt zijn krachten voor goede doeleinden.
Zo wil de mensenhatende Eric Lensherr, alias Magneto, zijn krachten gebruiken om de mensheid uit te roeien. 
Het is aan Xavier en zijn team om Magneto te stoppen.

English

Storyline
In a world where both Mutants and Humans fear each other, Marie D'Ancanto, better known as Rogue, runs away from home and hitches a ride with another mutant, known as Logan, a.k.a. Wolverine. Charles Xavier, who owns a school for young mutants, sends Storm and Cyclops to bring them back before it is too late. Magneto, who believes a war is approaching, has an evil plan in mind, and needs young Rogue to help him. 
 
http://www.imdb.com/title/tt0120903/


Spotinformatie 
Categorie : Beeld 
Formaat : HD Overig 
Bron : Retail
 
Ondertitels : Nederlands (instelbaar)
 
http://www.moviemeter.nl/film/18
 
Genre : Actie
Science Fiction
Thanks : Jet_Li

Format                           : Matroska
File size                        : 6.56 GiB
Duration                         : 1h 44mn
Overall bit rate                 : 8 999 Kbps
Encoded date                     : UTC 2009-04-26 16:54:26
Writing application              : mkvmerge v2.3.0 ('Freak U') built on Sep  8 2008 18:32:16
Writing library                  : libebml v0.7.7 + libmatroska v0.8.1

Video
ID                               : 1
Format                           : AVC
Format/Info                      : Advanced Video Codec
Format profile                   : High@L4.1
Format settings, CABAC           : Yes
Format settings, ReFrames        : 5 frames
Muxing mode                      : Container profile=Unknown@4.1
Codec ID                         : V_MPEG4/ISO/AVC
Duration                         : 1h 44mn
Bit rate                         : 7 487 Kbps
Width                            : 1 920 pixels
Height                           : 818 pixels
Display aspect ratio             : 2.35:1
Frame rate                       : 23.976 fps
Color space                      : YUV
Chroma subsampling               : 4:2:0
Bit depth                        : 8 bits
Scan type                        : Progressive
Bits/(Pixel*Frame)               : 0.199
Stream size                      : 5.33 GiB (81%)
Writing library                  : x264 core 67 r1145M d2e1e1c
Encoding settings                : cabac=1 / ref=5 / deblock=1:-3:-2 / analyse=0x3:0x113 / me=umh / subme=7 / psy_rd=1.1:0.0 / mixed_ref=1 / me_range=16 / chroma_me=1 / trellis=2 / 8x8dct=1 / cqm=0 / deadzone=21,11 / chroma_qp_offset=-4 / threads=3 / nr=0 / decimate=1 / mbaff=0 / bframes=3 / b_pyramid=1 / b_adapt=2 / b_bias=0 / direct=3 / wpredb=1 / keyint=250 / keyint_min=25 / scenecut=40 / rc=2pass / bitrate=7487 / ratetol=1.0 / qcomp=0.60 / qpmin=10 / qpmax=51 / qpstep=4 / cplxblur=20.0 / qblur=0.5 / vbv_maxrate=40000 / vbv_bufsize=40000 / ip_ratio=1.40 / pb_ratio=1.30 / aq=1:0.80 / zones=140115,149284,q=29

Audio
ID                               : 2
Format                           : DTS
Format/Info                      : Digital Theater Systems
Codec ID                         : A_DTS
Duration                         : 1h 44mn
Bit rate mode                    : Constant
Bit rate                         : 1 510 Kbps
Channel(s)                       : 6 channels
Channel positions                : Front: L C R, Side: L R, LFE
Sampling rate                    : 48.0 KHz
Bit depth                        : 24 bits
Stream size                      : 1.10 GiB (17%)
Language                         : English

Text
ID                               : 3
Format                           : UTF-8
Codec ID                         : S_TEXT/UTF8
Codec ID/Info                    : UTF-8 Plain Text
Language                         : Dutch

 
Weblink :  http://www.moviemeter.nl/film/18 
Weblink :  http://www.imdb.com/title/tt0120903
  
 
  
TBS

Black-sam